<?xml version="1.0" encoding="UTF-8" standalone="no"?>
<!-- Created with Inkscape (http://www.inkscape.org/) -->

<svg
   width="39.302696mm"
   height="6.3293304mm"
   viewBox="0 0 39.302696 6.3293304"
   version="1.1"
   id="svg5"
   inkscape:version="1.2.2 (b0a84865, 2022-12-01)"
   sodipodi:docname="hpcs.svg"
   xmlns:inkscape="http://www.inkscape.org/namespaces/inkscape"
   xmlns:sodipodi="http://sodipodi.sourceforge.net/DTD/sodipodi-0.dtd"
   xmlns="http://www.w3.org/2000/svg"
   xmlns:svg="http://www.w3.org/2000/svg">
  <sodipodi:namedview
     id="namedview7"
     pagecolor="#ffffff"
     bordercolor="#999999"
     borderopacity="1"
     inkscape:showpageshadow="0"
     inkscape:pageopacity="0"
     inkscape:pagecheckerboard="0"
     inkscape:deskcolor="#d1d1d1"
     inkscape:document-units="mm"
     showgrid="false"
     showguides="false"
     inkscape:zoom="4.1547718"
     inkscape:cx="74.85369"
     inkscape:cy="17.690502"
     inkscape:window-width="1440"
     inkscape:window-height="781"
     inkscape:window-x="0"
     inkscape:window-y="25"
     inkscape:window-maximized="1"
     inkscape:current-layer="text117" />
  <defs
     id="defs2">
    <rect
       x="209.28333"
       y="337.70718"
       width="195.01401"
       height="61.83371"
       id="rect119" />
    <rect
       x="175.98827"
       y="375.7587"
       width="175.98827"
       height="133.1803"
       id="rect113" />
  </defs>
  <g
     inkscape:label="Layer 1"
     inkscape:groupmode="layer"
     id="layer1"
     transform="translate(-56.600761,-90.841802)">
    <text
       xml:space="preserve"
       transform="scale(0.26458333)"
       id="text111"
       style="white-space:pre;shape-inside:url(#rect113);display:inline;fill:#000000" />
    <g
       aria-label="HPCS Lab."
       transform="scale(0.26458333)"
       id="text117"
       style="font-size:32px;white-space:pre;shape-inside:url(#rect119)">
      <path
         d="m 215.97102,366.9016 h -2.04688 v -22.75 h 2.10938 v 10.15625 h 13.5625 V 344.1516 h 2.03125 v 22.75 h -2.09375 v -10.82812 h -13.5625 z"
         style="font-weight:300;font-family:Muli;-inkscape-font-specification:'Muli Light'"
         id="path173" />
      <path
         d="m 239.04883,366.9016 h -1.96875 v -22.75 h 5.125 q 1.3125,0 2.5625,0.125 1.26562,0.10938 2.39062,0.40625 1.125,0.28125 2.0625,0.76563 0.9375,0.48437 1.60938,1.23437 0.6875,0.73438 1.0625,1.76563 0.39062,1.01562 0.39062,2.375 0,1.76562 -0.76562,3.03125 -0.75,1.25 -2.03125,2.0625 -1.26563,0.79687 -2.95313,1.1875 -1.6875,0.375 -3.54687,0.375 h -3.84375 z m 0.0937,-11.20312 h 4.54687 q 1.40625,0 2.59375,-0.28125 1.1875,-0.28125 2.03125,-0.875 0.85938,-0.59375 1.34375,-1.5 0.48438,-0.90625 0.48438,-2.15625 0,-1.48438 -0.53125,-2.4375 -0.51563,-0.96875 -1.48438,-1.51563 -0.95312,-0.5625 -2.29687,-0.78125 -1.32813,-0.21875 -2.9375,-0.21875 h -3.75 z"
         style="font-weight:300;font-family:Muli;-inkscape-font-specification:'Muli Light'"
         id="path175" />
      <path
         d="m 272.05814,347.12035 q -2.0625,-1.59375 -5.5625,-1.59375 -2.32813,0 -4.03125,0.89063 -1.70313,0.875 -2.82813,2.32812 -1.125,1.4375 -1.67187,3.28125 -0.54688,1.84375 -0.54688,3.76563 0,1.9375 0.5,3.6875 0.51563,1.75 1.57813,3.09375 1.07812,1.32812 2.71875,2.125 1.65625,0.78125 3.9375,0.78125 2.07812,0 3.76562,-0.46875 1.70313,-0.48438 2.8125,-1.46875 l 0.65625,1.51562 q -1.34375,1.07813 -3.29687,1.64063 -1.95313,0.5625 -4.4375,0.5625 -2.53125,0 -4.48438,-0.89063 -1.9375,-0.90625 -3.25,-2.45312 -1.3125,-1.5625 -2,-3.64063 -0.67187,-2.07812 -0.67187,-4.45312 0,-2.4375 0.75,-4.625 0.75,-2.1875 2.17187,-3.84375 1.42188,-1.67188 3.45313,-2.64063 2.04687,-0.98437 4.625,-0.98437 2.0625,0 3.625,0.53125 1.57812,0.51562 2.9375,1.6875 z"
         style="font-weight:300;font-family:Muli;-inkscape-font-specification:'Muli Light'"
         id="path177" />
      <path
         d="m 277.85802,362.99535 q 0.76562,0.85938 1.53125,1.35938 0.78125,0.48437 1.54687,0.73437 0.78125,0.25 1.54688,0.32813 0.76562,0.0625 1.51562,0.0625 1.34375,0 2.46875,-0.26563 1.125,-0.26562 1.92188,-0.78125 0.8125,-0.51562 1.26562,-1.28125 0.45313,-0.76562 0.45313,-1.78125 0,-1.15625 -0.5625,-1.95312 -0.54688,-0.8125 -1.46875,-1.40625 -0.90625,-0.59375 -2.0625,-1.04688 -1.15625,-0.45312 -2.375,-0.89062 -1.21875,-0.45313 -2.375,-0.96875 -1.15625,-0.53125 -2.07813,-1.25 -0.90625,-0.73438 -1.46875,-1.73438 -0.54687,-1.01562 -0.54687,-2.45312 0,-1.46875 0.6875,-2.57813 0.6875,-1.10937 1.82812,-1.85937 1.14063,-0.75 2.57813,-1.125 1.45312,-0.375 2.98437,-0.375 0.75,0 1.54688,0.10937 0.79687,0.0937 1.57812,0.32813 0.78125,0.23437 1.5,0.64062 0.73438,0.39063 1.34375,0.98438 l -0.76562,1.45312 q -1.07813,-0.9375 -2.46875,-1.32812 -1.375,-0.39063 -2.76563,-0.39063 -1.0625,0 -2.10937,0.21875 -1.04688,0.21875 -1.89063,0.70313 -0.82812,0.48437 -1.35937,1.23437 -0.51563,0.75 -0.51563,1.79688 0,1.10937 0.54688,1.89062 0.5625,0.78125 1.46875,1.39063 0.92187,0.59375 2.07812,1.07812 1.17188,0.46875 2.39063,0.95313 1.21875,0.48437 2.375,1.03125 1.17187,0.54687 2.07812,1.3125 0.92188,0.75 1.46875,1.76562 0.5625,1.01563 0.5625,2.4375 0,1.09375 -0.35937,1.96875 -0.34375,0.85938 -0.96875,1.51563 -0.625,0.65625 -1.45313,1.125 -0.82812,0.45312 -1.79687,0.75 -0.96875,0.29687 -2.01563,0.42187 -1.03125,0.14063 -2.0625,0.14063 -2.01562,0 -3.75,-0.75 -1.71875,-0.75 -2.89062,-2.26563 z"
         style="font-weight:300;font-family:Muli;-inkscape-font-specification:'Muli Light'"
         id="path179" />
      <path
         d="m 320.83008,366.9016 h -13.1875 v -22.75 h 2.0625 v 20.96875 h 11.125 z"
         style="font-weight:300;font-family:Muli;-inkscape-font-specification:'Muli Light'"
         id="path181" />
      <path
         d="m 330.71438,350.47973 q 1.125,0 2.01562,0.25 0.90625,0.23437 1.64063,0.6875 0.75,0.4375 1.35937,1.07812 0.625,0.64063 1.1875,1.45313 l 0.0781,-3.07813 h 1.875 v 3.8125 12.21875 h -1.96875 l 0.0312,-3.42187 q -0.21875,0.64062 -0.76563,1.3125 -0.54687,0.65625 -1.35937,1.21875 -0.8125,0.54687 -1.875,0.89062 -1.04688,0.35938 -2.26563,0.35938 -1.98437,0 -3.42187,-0.76563 -1.42188,-0.78125 -2.34375,-2 -0.92188,-1.23437 -1.35938,-2.75 -0.4375,-1.53125 -0.4375,-3.03125 0,-1.54687 0.46875,-3.03125 0.46875,-1.48437 1.42188,-2.64062 0.95312,-1.15625 2.375,-1.85938 1.42187,-0.70312 3.34375,-0.70312 z m 6.26562,8.21875 q -0.0937,-1.26563 -0.4375,-2.45313 -0.32812,-1.20312 -1.03125,-2.14062 -0.70312,-0.9375 -1.84375,-1.5 -1.125,-0.5625 -2.8125,-0.5625 -1.57812,0 -2.70312,0.60937 -1.10938,0.60938 -1.82813,1.59375 -0.71875,0.96875 -1.04687,2.17188 -0.32813,1.20312 -0.32813,2.39062 0,1.1875 0.25,2.42188 0.25,1.21875 0.90625,2.21875 0.67188,1 1.84375,1.64062 1.1875,0.64063 3.04688,0.64063 1.25,0 2.34375,-0.40625 1.09375,-0.40625 1.89062,-1.23438 0.8125,-0.82812 1.28125,-2.07812 0.46875,-1.25 0.46875,-2.92188 z"
         style="font-weight:300;font-family:Muli;-inkscape-font-specification:'Muli Light'"
         id="path183" />
      <path
         d="m 345.5837,366.9016 h -1.82812 v -23.5625 h 1.9375 v 10.8125 q 0.46875,-0.92187 1.14062,-1.60937 0.67188,-0.6875 1.48438,-1.14063 0.82812,-0.46875 1.76562,-0.6875 0.9375,-0.23437 1.9375,-0.23437 1.8125,0 3.09375,0.67187 1.29688,0.65625 2.125,1.78125 0.82813,1.125 1.21875,2.625 0.39063,1.48438 0.39063,3.125 0,1.76563 -0.45313,3.32813 -0.45312,1.54687 -1.35937,2.71875 -0.89063,1.17187 -2.25,1.85937 -1.35938,0.67188 -3.15625,0.67188 -3.90625,0 -5.95313,-3.375 z m 5.79688,-14.85937 q -1.60938,0 -2.70313,0.59375 -1.09375,0.59375 -1.76562,1.59375 -0.67188,1 -0.96875,2.3125 -0.28125,1.29687 -0.28125,2.70312 0,1.39063 0.35937,2.57813 0.375,1.1875 1.07813,2.0625 0.71875,0.85937 1.76562,1.35937 1.0625,0.48438 2.4375,0.48438 1.54688,0 2.60938,-0.625 1.07812,-0.64063 1.73437,-1.65625 0.65625,-1.01563 0.95313,-2.28125 0.29687,-1.28125 0.29687,-2.5625 0,-1.35938 -0.32812,-2.54688 -0.32813,-1.20312 -1.01563,-2.09375 -0.67187,-0.89062 -1.71875,-1.40625 -1.03125,-0.51562 -2.45312,-0.51562 z"
         style="font-weight:300;font-family:Muli;-inkscape-font-specification:'Muli Light'"
         id="path185" />
      <path
         d="m 362.46977,367.07348 h -2.70313 v -2.79688 h 2.70313 z"
         style="font-weight:300;font-family:Muli;-inkscape-font-specification:'Muli Light'"
         id="path187" />
    </g>
  </g>
</svg>
